<svg xmlns="http://www.w3.org/2000/svg" viewBox="0 0 1361.42 1101.09"><defs><style>.cls-1{fill:#fff;opacity:0.5;}</style></defs><g id="Layer_2" data-name="Layer 2"><g id="katman_1" data-name="katman 1"><path class="cls-1" d="M230.2,330.31c45.33.64,87.92,5.54,129.51,18,32.2,9.63,61.83,23.78,86.56,47.29,23.84,22.65,42,49.41,57.08,78.52q45.85,88.47,91.86,176.84,41.24,79.48,82.39,159,21,40.47,42.07,80.88c.7,1.35,1,3.41,2.88,3.54,2.37.16,2.8-2.15,3.63-3.73q17.19-32.43,34.32-64.9,51.64-97.71,103.29-195.43,43.32-82,86.56-164.13c20.83-39.47,41.79-78.89,62.52-118.42,2.17-4.14,4.81-5.87,9.42-5.83,19,.17,38,0,56.94.1,7.65,0,8.19.89,4.6,7.72q-21.37,40.71-42.91,81.34-48.8,92.39-97.61,184.75T845.64,800.58Q789.32,907.23,733.1,1013.93c-13.93,26.4-28.05,52.7-41.79,79.21-3,5.71-6.47,8.2-13.1,7.93-13.61-.54-27.26-.31-40.89-.07-5,.09-7.7-1.86-10-6.27q-43.14-84-86.58-167.77-50.85-98.13-101.84-196.2C410,674.89,381.31,618.87,352.18,563.09c-20-38.38-38.84-77.42-60.37-115-10.72-18.7-23-36.33-38.12-51.82-21.37-21.95-47.43-34.51-77.36-39.33-7.44-1.2-7.44-1.26-7.48-9.1,0-3-.08-5.93,0-8.9.18-5.62.6-6.23,5.8-6.46C193.88,331.67,213.1,331,230.2,330.31Z"/><path class="cls-1" d="M269.61,518.57q0,174.81,0,349.62c0,25.83,1.51,51.58,6.7,77a176.25,176.25,0,0,0,13,39.93c13,27.55,35.5,42.57,64.24,49.68a243,243,0,0,0,57.48,6.82c5.69,0,11.39.08,17.08.06,7.46,0,8.71,5.21,6.16,15.72a46.17,46.17,0,0,0,.37,21.64c2.16,9,.06,12.62-6.09,12.59-2.66,0-5.31.06-8,.06-84.65,0-169.31.12-254-.08a260.16,260.16,0,0,1-71.88-10.27c-42.9-12.38-68.65-41.27-80.6-83.5-9-32-12.48-64.87-12.53-97.92q-.4-296.65-.24-593.32C1.39,295.52,4,286,10.2,276.7q75.61-112.92,210-132.18c13.55-1.93,27.1-3.59,40.79-3.39a8.64,8.64,0,0,1,8.59,8.08c.18,3.53.06,7.09.06,10.63Q269.62,339.21,269.61,518.57ZM14.33,0C.08,0,.07.05,0,14.72c0,9.1,0,18.2,0,27.3,0,23.88-.1,47.76.06,71.64.06,10.15.83,10.5,10.52,7,.71-.26,1.38-.63,2.08-.9C72.16,97,133.69,83.26,197.07,77.45q30.59-2.81,61.25-3.42c4.75-.09,9.63-.16,9.66-6.7q.13-30.7,0-61.4c0-3.57-2.13-5.57-5.72-5.75-3-.14-6.06-.17-9.09-.17H134.88Q74.61,0,14.33,0Z"/><path class="cls-1" d="M993.09,634.38a430.42,430.42,0,0,1-91.47-7.91c-68.82-13.15-130.68-41-182.79-88.64a293.27,293.27,0,0,1-91.26-175,320.65,320.65,0,0,1,.87-93C637.29,213.45,661,164,698.53,121.23c31.54-35.91,70.18-62.15,113.52-81.67,35.82-16.14,73.37-26.17,112.29-31.51A528.77,528.77,0,0,1,1011,3.78c38.08,1.05,75.64,6.27,112.26,17,53.23,15.62,101.42,40.68,142.37,78.5,39.61,36.6,67.49,80.69,83,132.51a300.46,300.46,0,0,1,11.83,110.69c-5,63.31-27.37,120-68.51,168.88-28,33.29-62,59-100.57,78.9A384.08,384.08,0,0,1,1087.77,626,440.14,440.14,0,0,1,993.09,634.38Zm212-353.21c-2.37-32.2-7.35-63.89-17.7-94.57-11.46-34-28.56-64.54-54.45-89.9-28.14-27.56-62-43-100.54-49.16A252.67,252.67,0,0,0,978.58,45c-22.86,1.26-45.11,5.43-66.44,13.87C874,74,845.31,100.09,824.05,134.73c-21.95,35.75-32.81,75.22-38.31,116.4a521.08,521.08,0,0,0-3.85,88.56c1.24,33.1,5.09,65.81,14,97.8,9.1,32.57,23,62.76,44.52,89.09,23.81,29.07,53.73,48.91,90,58.87,36.64,10.07,73.75,10.95,110.87,3.62,49.71-9.81,88.85-36.09,117.23-78.13,22.63-33.51,34.85-71,41.47-110.51a423.69,423.69,0,0,0,6.06-78.31C1206.05,306.87,1206.07,294,1205.12,281.17Z"/></g></g></svg>