<svg xmlns="http://www.w3.org/2000/svg" viewBox="0 0 1718.81 469.78"><defs><style>.cls-1{opacity:0.25;}.cls-2{fill:#fff;}</style></defs><g id="Layer_2" data-name="Layer 2"><g id="katman_1" data-name="katman 1"><g class="cls-1"><path class="cls-2" d="M1718.55,55.23V66.5L1715.92,81c-29.08,79.51-55.12,160.66-86.13,239.48-10,25.38-22.86,53.25-36.39,76.95-21.33,37.3-45.06,64.52-90,70.37-2.67.36-5.52.44-8.3.62l-.66-9.36c70-4.9,102.07-84.2,125-141.8,32-80.46,58.88-163.56,87.63-245.19a92.15,92.15,0,0,0,1.76-16.86Z"/><path class="cls-2" d="M1718.55,44.15V55.23h-9.76c0-34.27-26.19-42.57-63.2-44.66l-1573.65.3A66.22,66.22,0,0,0,11.37,70L11.52,402c4.24,30.95,29.18,54.24,60.12,57.21H1482a101.28,101.28,0,0,0,12.47-.11l.66,9.36a42.87,42.87,0,0,0-8,1.1H67.29c-4.79-1.36-9.76-2-14.55-3.44-23.45-7.21-43-28.27-49.53-51.83-1.06-3.84-1.06-8.23-3-11.77V68.1c2-5.7,2.64-11.66,4.57-17.4,7.72-22.94,29.12-42.21,52.56-48L69.67.26H1649.13l17,1.68c17.55,2.27,36.5,9,46.34,24.73C1716,32.15,1717.27,37.93,1718.55,44.15Z"/><path class="cls-2" d="M1708.79,55.23A92.15,92.15,0,0,1,1707,72.09c-28.75,81.63-55.67,164.73-87.63,245.19-22.9,57.6-55,136.9-125,141.8a101.28,101.28,0,0,1-12.47.11H71.64c-30.94-3-55.88-26.26-60.12-57.21L11.37,70A66.22,66.22,0,0,1,71.94,10.87l1573.65-.3C1682.6,12.66,1708.79,21,1708.79,55.23Z"/></g></g></g></svg>