{
	"asset":{
		"generator":"Khronos glTF Blender I/O v5.0.21",
		"version":"2.0"
	},
	"scene":0,
	"scenes":[
		{
			"name":"Scene",
			"nodes":[
				0
			]
		}
	],
	"nodes":[
		{
			"mesh":0,
			"name":"Cube.004",
			"rotation":[
				0.7071069478988647,
				0,
				0.7071065902709961,
				0
			],
			"scale":[
				-1,
				-1.4442774057388306,
				-1
			],
			"translation":[
				0.008346952497959137,
				0.5598572492599487,
				0.12407779693603516
			]
		}
	],
	"materials":[
		{
			"doubleSided":true,
			"name":"Material",
			"pbrMetallicRoughness":{
				"baseColorFactor":[
					0.800000011920929,
					0.800000011920929,
					0.800000011920929,
					1
				],
				"metallicFactor":0.2538461685180664,
				"roughnessFactor":0.30000001192092896
			}
		},
		{
			"doubleSided":true,
			"name":"Material.001",
			"normalTexture":{
				"index":0
			},
			"pbrMetallicRoughness":{
				"baseColorTexture":{
					"index":1
				},
				"metallicFactor":0,
				"roughnessFactor":0.5
			}
		},
		{
			"doubleSided":true,
			"name":"Material.002",
			"pbrMetallicRoughness":{
				"baseColorFactor":[
					0.800000011920929,
					0.800000011920929,
					0.800000011920929,
					1
				],
				"metallicFactor":0.30454546213150024,
				"roughnessFactor":0.7136363983154297
			}
		},
		{
			"alphaMode":"BLEND",
			"doubleSided":true,
			"name":"Material.003",
			"pbrMetallicRoughness":{
				"baseColorFactor":[
					0.09830667078495026,
					0.09830667078495026,
					0.09830667078495026,
					0.5
				],
				"metallicFactor":0.6090909242630005,
				"roughnessFactor":0.7318181991577148
			}
		},
		{
			"doubleSided":true,
			"name":"Material.004",
			"pbrMetallicRoughness":{
				"baseColorFactor":[
					0.2589925527572632,
					0.2589925527572632,
					0.2589925527572632,
					1
				],
				"metallicFactor":0.8681818246841431,
				"roughnessFactor":0.5
			}
		},
		{
			"doubleSided":true,
			"name":"Material.008",
			"pbrMetallicRoughness":{
				"baseColorFactor":[
					0.800000011920929,
					0.800000011920929,
					0.800000011920929,
					1
				],
				"metallicFactor":0,
				"roughnessFactor":0.5
			}
		},
		{
			"doubleSided":true,
			"name":"Material.005",
			"pbrMetallicRoughness":{
				"baseColorFactor":[
					0.15198050439357758,
					0.15198050439357758,
					0.15198050439357758,
					1
				],
				"metallicFactor":0.7863636612892151,
				"roughnessFactor":0.5
			}
		},
		{
			"doubleSided":true,
			"name":"Material.006",
			"pbrMetallicRoughness":{
				"baseColorTexture":{
					"index":2
				},
				"metallicFactor":0.7227272987365723,
				"roughnessFactor":0.1409091055393219
			}
		},
		{
			"doubleSided":true,
			"name":"Material.007",
			"pbrMetallicRoughness":{
				"baseColorFactor":[
					0.800000011920929,
					0.800000011920929,
					0.800000011920929,
					1
				],
				"metallicFactor":0,
				"roughnessFactor":0.5
			}
		},
		{
			"doubleSided":true,
			"name":"Material.009",
			"pbrMetallicRoughness":{
				"baseColorTexture":{
					"index":3
				},
				"metallicFactor":0,
				"roughnessFactor":0.5
			}
		}
	],
	"meshes":[
		{
			"name":"Cube.007",
			"primitives":[
				{
					"attributes":{
						"POSITION":0,
						"NORMAL":1,
						"TEXCOORD_0":2,
						"TEXCOORD_1":3,
						"TEXCOORD_2":4,
						"COLOR_0":5,
						"COLOR_1":6
					},
					"indices":7,
					"material":0
				},
				{
					"attributes":{
						"POSITION":8,
						"NORMAL":9,
						"TEXCOORD_0":10,
						"TEXCOORD_1":11,
						"TEXCOORD_2":12,
						"COLOR_0":13,
						"COLOR_1":14
					},
					"indices":15,
					"material":1
				},
				{
					"attributes":{
						"POSITION":16,
						"NORMAL":17,
						"TEXCOORD_0":18,
						"TEXCOORD_1":19,
						"TEXCOORD_2":20,
						"COLOR_0":21,
						"COLOR_1":22
					},
					"indices":23,
					"material":2
				},
				{
					"attributes":{
						"POSITION":24,
						"NORMAL":25,
						"TEXCOORD_0":26,
						"TEXCOORD_1":27,
						"TEXCOORD_2":28,
						"COLOR_0":29,
						"COLOR_1":30
					},
					"indices":31,
					"material":3
				},
				{
					"attributes":{
						"POSITION":32,
						"NORMAL":33,
						"TEXCOORD_0":34,
						"TEXCOORD_1":35,
						"TEXCOORD_2":36,
						"COLOR_0":37,
						"COLOR_1":38
					},
					"indices":39,
					"material":4
				},
				{
					"attributes":{
						"POSITION":40,
						"NORMAL":41,
						"TEXCOORD_0":42,
						"TEXCOORD_1":43,
						"TEXCOORD_2":44,
						"COLOR_0":45,
						"COLOR_1":46
					},
					"indices":47,
					"material":5
				},
				{
					"attributes":{
						"POSITION":48,
						"NORMAL":49,
						"TEXCOORD_0":50,
						"TEXCOORD_1":51,
						"TEXCOORD_2":52,
						"COLOR_0":53,
						"COLOR_1":54
					},
					"indices":55,
					"material":6
				},
				{
					"attributes":{
						"POSITION":56,
						"NORMAL":57,
						"TEXCOORD_0":58,
						"TEXCOORD_1":59,
						"TEXCOORD_2":60,
						"COLOR_0":61,
						"COLOR_1":62
					},
					"indices":63,
					"material":7
				},
				{
					"attributes":{
						"POSITION":64,
						"NORMAL":65,
						"TEXCOORD_0":66,
						"TEXCOORD_1":67,
						"TEXCOORD_2":68,
						"COLOR_0":69,
						"COLOR_1":70
					},
					"indices":71,
					"material":8
				},
				{
					"attributes":{
						"POSITION":72,
						"NORMAL":73,
						"TEXCOORD_0":74,
						"TEXCOORD_1":75,
						"TEXCOORD_2":76,
						"COLOR_0":77,
						"COLOR_1":78
					},
					"indices":79,
					"material":9
				},
				{
					"attributes":{
						"POSITION":80,
						"NORMAL":81,
						"TEXCOORD_0":82,
						"TEXCOORD_1":83,
						"TEXCOORD_2":84,
						"COLOR_0":85,
						"COLOR_1":86
					},
					"indices":87
				}
			]
		}
	],
	"textures":[
		{
			"sampler":0,
			"source":0
		},
		{
			"sampler":0,
			"source":1
		},
		{
			"sampler":0,
			"source":2
		},
		{
			"sampler":0,
			"source":3
		}
	],
	"images":[
		{
			"mimeType":"image/png",
			"name":"YuzeyNormal",
			"uri":"YuzeyNormal.png"
		},
		{
			"mimeType":"image/png",
			"name":"Yuzey",
			"uri":"Yuzey.png"
		},
		{
			"mimeType":"image/png",
			"name":"GunesPaneli",
			"uri":"GunesPaneli.png"
		},
		{
			"mimeType":"image/png",
			"name":"Ahsap",
			"uri":"Ahsap.png"
		}
	],
	"accessors":[
		{
			"bufferView":0,
			"componentType":5126,
			"count":29812,
			"max":[
				8.636189460754395,
				2.4104983806610107,
				2.719111204147339
			],
			"min":[
				-8.398632049560547,
				-0.08523537218570709,
				-2.6640024185180664
			],
			"type":"VEC3"
		},
		{
			"bufferView":1,
			"componentType":5126,
			"count":29812,
			"type":"VEC3"
		},
		{
			"bufferView":2,
			"componentType":5126,
			"count":29812,
			"type":"VEC2"
		},
		{
			"bufferView":3,
			"componentType":5126,
			"count":29812,
			"type":"VEC2"
		},
		{
			"bufferView":4,
			"componentType":5126,
			"count":29812,
			"type":"VEC2"
		},
		{
			"bufferView":5,
			"componentType":5121,
			"count":29812,
			"normalized":true,
			"type":"VEC4"
		},
		{
			"bufferView":6,
			"componentType":5123,
			"count":29812,
			"normalized":true,
			"type":"VEC4"
		},
		{
			"bufferView":7,
			"componentType":5123,
			"count":87804,
			"type":"SCALAR"
		},
		{
			"bufferView":8,
			"componentType":5126,
			"count":6926,
			"max":[
				7.9996442794799805,
				2.4104950428009033,
				2.6640005111694336
			],
			"min":[
				-6.9302802085876465,
				-0.08168470859527588,
				-2.6640024185180664
			],
			"type":"VEC3"
		},
		{
			"bufferView":9,
			"componentType":5126,
			"count":6926,
			"type":"VEC3"
		},
		{
			"bufferView":10,
			"componentType":5126,
			"count":6926,
			"type":"VEC2"
		},
		{
			"bufferView":11,
			"componentType":5126,
			"count":6926,
			"type":"VEC2"
		},
		{
			"bufferView":12,
			"componentType":5126,
			"count":6926,
			"type":"VEC2"
		},
		{
			"bufferView":13,
			"componentType":5121,
			"count":6926,
			"normalized":true,
			"type":"VEC4"
		},
		{
			"bufferView":14,
			"componentType":5123,
			"count":6926,
			"normalized":true,
			"type":"VEC4"
		},
		{
			"bufferView":15,
			"componentType":5123,
			"count":11304,
			"type":"SCALAR"
		},
		{
			"bufferView":16,
			"componentType":5126,
			"count":104,
			"max":[
				-6.857169151306152,
				2.0329596996307373,
				2.2527387142181396
			],
			"min":[
				-7.277953147888184,
				0.13170042634010315,
				-2.2659225463867188
			],
			"type":"VEC3"
		},
		{
			"bufferView":17,
			"componentType":5126,
			"count":104,
			"type":"VEC3"
		},
		{
			"bufferView":18,
			"componentType":5126,
			"count":104,
			"type":"VEC2"
		},
		{
			"bufferView":19,
			"componentType":5126,
			"count":104,
			"type":"VEC2"
		},
		{
			"bufferView":20,
			"componentType":5126,
			"count":104,
			"type":"VEC2"
		},
		{
			"bufferView":21,
			"componentType":5121,
			"count":104,
			"normalized":true,
			"type":"VEC4"
		},
		{
			"bufferView":22,
			"componentType":5123,
			"count":104,
			"normalized":true,
			"type":"VEC4"
		},
		{
			"bufferView":23,
			"componentType":5123,
			"count":210,
			"type":"SCALAR"
		},
		{
			"bufferView":24,
			"componentType":5126,
			"count":48,
			"max":[
				8.12851333618164,
				2.440370559692383,
				2.2527387142181396
			],
			"min":[
				-7.261734485626221,
				0.10259735584259033,
				-2.2527334690093994
			],
			"type":"VEC3"
		},
		{
			"bufferView":25,
			"componentType":5126,
			"count":48,
			"type":"VEC3"
		},
		{
			"bufferView":26,
			"componentType":5126,
			"count":48,
			"type":"VEC2"
		},
		{
			"bufferView":27,
			"componentType":5126,
			"count":48,
			"type":"VEC2"
		},
		{
			"bufferView":28,
			"componentType":5126,
			"count":48,
			"type":"VEC2"
		},
		{
			"bufferView":29,
			"componentType":5121,
			"count":48,
			"normalized":true,
			"type":"VEC4"
		},
		{
			"bufferView":30,
			"componentType":5123,
			"count":48,
			"normalized":true,
			"type":"VEC4"
		},
		{
			"bufferView":31,
			"componentType":5123,
			"count":84,
			"type":"SCALAR"
		},
		{
			"bufferView":32,
			"componentType":5126,
			"count":137,
			"max":[
				4.827801704406738,
				2.4694201946258545,
				2.7477290630340576
			],
			"min":[
				-7.277953147888184,
				0.2718428075313568,
				-2.2659225463867188
			],
			"type":"VEC3"
		},
		{
			"bufferView":33,
			"componentType":5126,
			"count":137,
			"type":"VEC3"
		},
		{
			"bufferView":34,
			"componentType":5126,
			"count":137,
			"type":"VEC2"
		},
		{
			"bufferView":35,
			"componentType":5126,
			"count":137,
			"type":"VEC2"
		},
		{
			"bufferView":36,
			"componentType":5126,
			"count":137,
			"type":"VEC2"
		},
		{
			"bufferView":37,
			"componentType":5121,
			"count":137,
			"normalized":true,
			"type":"VEC4"
		},
		{
			"bufferView":38,
			"componentType":5123,
			"count":137,
			"normalized":true,
			"type":"VEC4"
		},
		{
			"bufferView":39,
			"componentType":5123,
			"count":279,
			"type":"SCALAR"
		},
		{
			"bufferView":40,
			"componentType":5126,
			"count":30400,
			"max":[
				8.176009178161621,
				2.0329596996307373,
				4.88416051864624
			],
			"min":[
				-2.150576114654541,
				-0.2943557798862457,
				-1.7608071565628052
			],
			"type":"VEC3"
		},
		{
			"bufferView":41,
			"componentType":5126,
			"count":30400,
			"type":"VEC3"
		},
		{
			"bufferView":42,
			"componentType":5126,
			"count":30400,
			"type":"VEC2"
		},
		{
			"bufferView":43,
			"componentType":5126,
			"count":30400,
			"type":"VEC2"
		},
		{
			"bufferView":44,
			"componentType":5126,
			"count":30400,
			"type":"VEC2"
		},
		{
			"bufferView":45,
			"componentType":5121,
			"count":30400,
			"normalized":true,
			"type":"VEC4"
		},
		{
			"bufferView":46,
			"componentType":5123,
			"count":30400,
			"normalized":true,
			"type":"VEC4"
		},
		{
			"bufferView":47,
			"componentType":5123,
			"count":44709,
			"type":"SCALAR"
		},
		{
			"bufferView":48,
			"componentType":5126,
			"count":616,
			"max":[
				7.923316955566406,
				2.459911823272705,
				1.559486985206604
			],
			"min":[
				-6.521186828613281,
				2.336347818374634,
				-1.695217251777649
			],
			"type":"VEC3"
		},
		{
			"bufferView":49,
			"componentType":5126,
			"count":616,
			"type":"VEC3"
		},
		{
			"bufferView":50,
			"componentType":5126,
			"count":616,
			"type":"VEC2"
		},
		{
			"bufferView":51,
			"componentType":5126,
			"count":616,
			"type":"VEC2"
		},
		{
			"bufferView":52,
			"componentType":5126,
			"count":616,
			"type":"VEC2"
		},
		{
			"bufferView":53,
			"componentType":5121,
			"count":616,
			"normalized":true,
			"type":"VEC4"
		},
		{
			"bufferView":54,
			"componentType":5123,
			"count":616,
			"normalized":true,
			"type":"VEC4"
		},
		{
			"bufferView":55,
			"componentType":5123,
			"count":1224,
			"type":"SCALAR"
		},
		{
			"bufferView":56,
			"componentType":5126,
			"count":100,
			"max":[
				7.891452789306641,
				2.458627223968506,
				1.5380419492721558
			],
			"min":[
				-6.489321231842041,
				2.3676936626434326,
				-1.6737703084945679
			],
			"type":"VEC3"
		},
		{
			"bufferView":57,
			"componentType":5126,
			"count":100,
			"type":"VEC3"
		},
		{
			"bufferView":58,
			"componentType":5126,
			"count":100,
			"type":"VEC2"
		},
		{
			"bufferView":59,
			"componentType":5126,
			"count":100,
			"type":"VEC2"
		},
		{
			"bufferView":60,
			"componentType":5126,
			"count":100,
			"type":"VEC2"
		},
		{
			"bufferView":61,
			"componentType":5121,
			"count":100,
			"normalized":true,
			"type":"VEC4"
		},
		{
			"bufferView":62,
			"componentType":5123,
			"count":100,
			"normalized":true,
			"type":"VEC4"
		},
		{
			"bufferView":63,
			"componentType":5123,
			"count":150,
			"type":"SCALAR"
		},
		{
			"bufferView":64,
			"componentType":5126,
			"count":168,
			"max":[
				4.144286155700684,
				1.8832485675811768,
				2.7095935344696045
			],
			"min":[
				3.275345802307129,
				0.11619547009468079,
				2.572343349456787
			],
			"type":"VEC3"
		},
		{
			"bufferView":65,
			"componentType":5126,
			"count":168,
			"type":"VEC3"
		},
		{
			"bufferView":66,
			"componentType":5126,
			"count":168,
			"type":"VEC2"
		},
		{
			"bufferView":67,
			"componentType":5126,
			"count":168,
			"type":"VEC2"
		},
		{
			"bufferView":68,
			"componentType":5126,
			"count":168,
			"type":"VEC2"
		},
		{
			"bufferView":69,
			"componentType":5121,
			"count":168,
			"normalized":true,
			"type":"VEC4"
		},
		{
			"bufferView":70,
			"componentType":5123,
			"count":168,
			"normalized":true,
			"type":"VEC4"
		},
		{
			"bufferView":71,
			"componentType":5123,
			"count":240,
			"type":"SCALAR"
		},
		{
			"bufferView":72,
			"componentType":5126,
			"count":185,
			"max":[
				4.123939514160156,
				1.883249044418335,
				2.709594488143921
			],
			"min":[
				-1.784531593322754,
				0.08475613594055176,
				2.6266167163848877
			],
			"type":"VEC3"
		},
		{
			"bufferView":73,
			"componentType":5126,
			"count":185,
			"type":"VEC3"
		},
		{
			"bufferView":74,
			"componentType":5126,
			"count":185,
			"type":"VEC2"
		},
		{
			"bufferView":75,
			"componentType":5126,
			"count":185,
			"type":"VEC2"
		},
		{
			"bufferView":76,
			"componentType":5126,
			"count":185,
			"type":"VEC2"
		},
		{
			"bufferView":77,
			"componentType":5121,
			"count":185,
			"normalized":true,
			"type":"VEC4"
		},
		{
			"bufferView":78,
			"componentType":5123,
			"count":185,
			"normalized":true,
			"type":"VEC4"
		},
		{
			"bufferView":79,
			"componentType":5123,
			"count":351,
			"type":"SCALAR"
		},
		{
			"bufferView":80,
			"componentType":5126,
			"count":172,
			"max":[
				8.285547256469727,
				1.8442208766937256,
				3.4605462551116943
			],
			"min":[
				-6.782229423522949,
				-0.4239247739315033,
				-2.1546261310577393
			],
			"type":"VEC3"
		},
		{
			"bufferView":81,
			"componentType":5126,
			"count":172,
			"type":"VEC3"
		},
		{
			"bufferView":82,
			"componentType":5126,
			"count":172,
			"type":"VEC2"
		},
		{
			"bufferView":83,
			"componentType":5126,
			"count":172,
			"type":"VEC2"
		},
		{
			"bufferView":84,
			"componentType":5126,
			"count":172,
			"type":"VEC2"
		},
		{
			"bufferView":85,
			"componentType":5121,
			"count":172,
			"normalized":true,
			"type":"VEC4"
		},
		{
			"bufferView":86,
			"componentType":5123,
			"count":172,
			"normalized":true,
			"type":"VEC4"
		},
		{
			"bufferView":87,
			"componentType":5123,
			"count":258,
			"type":"SCALAR"
		}
	],
	"bufferViews":[
		{
			"buffer":0,
			"byteLength":357744,
			"byteOffset":0,
			"target":34962
		},
		{
			"buffer":0,
			"byteLength":357744,
			"byteOffset":357744,
			"target":34962
		},
		{
			"buffer":0,
			"byteLength":238496,
			"byteOffset":715488,
			"target":34962
		},
		{
			"buffer":0,
			"byteLength":238496,
			"byteOffset":953984,
			"target":34962
		},
		{
			"buffer":0,
			"byteLength":238496,
			"byteOffset":1192480,
			"target":34962
		},
		{
			"buffer":0,
			"byteLength":119248,
			"byteOffset":1430976,
			"target":34962
		},
		{
			"buffer":0,
			"byteLength":238496,
			"byteOffset":1550224,
			"target":34962
		},
		{
			"buffer":0,
			"byteLength":175608,
			"byteOffset":1788720,
			"target":34963
		},
		{
			"buffer":0,
			"byteLength":83112,
			"byteOffset":1964328,
			"target":34962
		},
		{
			"buffer":0,
			"byteLength":83112,
			"byteOffset":2047440,
			"target":34962
		},
		{
			"buffer":0,
			"byteLength":55408,
			"byteOffset":2130552,
			"target":34962
		},
		{
			"buffer":0,
			"byteLength":55408,
			"byteOffset":2185960,
			"target":34962
		},
		{
			"buffer":0,
			"byteLength":55408,
			"byteOffset":2241368,
			"target":34962
		},
		{
			"buffer":0,
			"byteLength":27704,
			"byteOffset":2296776,
			"target":34962
		},
		{
			"buffer":0,
			"byteLength":55408,
			"byteOffset":2324480,
			"target":34962
		},
		{
			"buffer":0,
			"byteLength":22608,
			"byteOffset":2379888,
			"target":34963
		},
		{
			"buffer":0,
			"byteLength":1248,
			"byteOffset":2402496,
			"target":34962
		},
		{
			"buffer":0,
			"byteLength":1248,
			"byteOffset":2403744,
			"target":34962
		},
		{
			"buffer":0,
			"byteLength":832,
			"byteOffset":2404992,
			"target":34962
		},
		{
			"buffer":0,
			"byteLength":832,
			"byteOffset":2405824,
			"target":34962
		},
		{
			"buffer":0,
			"byteLength":832,
			"byteOffset":2406656,
			"target":34962
		},
		{
			"buffer":0,
			"byteLength":416,
			"byteOffset":2407488,
			"target":34962
		},
		{
			"buffer":0,
			"byteLength":832,
			"byteOffset":2407904,
			"target":34962
		},
		{
			"buffer":0,
			"byteLength":420,
			"byteOffset":2408736,
			"target":34963
		},
		{
			"buffer":0,
			"byteLength":576,
			"byteOffset":2409156,
			"target":34962
		},
		{
			"buffer":0,
			"byteLength":576,
			"byteOffset":2409732,
			"target":34962
		},
		{
			"buffer":0,
			"byteLength":384,
			"byteOffset":2410308,
			"target":34962
		},
		{
			"buffer":0,
			"byteLength":384,
			"byteOffset":2410692,
			"target":34962
		},
		{
			"buffer":0,
			"byteLength":384,
			"byteOffset":2411076,
			"target":34962
		},
		{
			"buffer":0,
			"byteLength":192,
			"byteOffset":2411460,
			"target":34962
		},
		{
			"buffer":0,
			"byteLength":384,
			"byteOffset":2411652,
			"target":34962
		},
		{
			"buffer":0,
			"byteLength":168,
			"byteOffset":2412036,
			"target":34963
		},
		{
			"buffer":0,
			"byteLength":1644,
			"byteOffset":2412204,
			"target":34962
		},
		{
			"buffer":0,
			"byteLength":1644,
			"byteOffset":2413848,
			"target":34962
		},
		{
			"buffer":0,
			"byteLength":1096,
			"byteOffset":2415492,
			"target":34962
		},
		{
			"buffer":0,
			"byteLength":1096,
			"byteOffset":2416588,
			"target":34962
		},
		{
			"buffer":0,
			"byteLength":1096,
			"byteOffset":2417684,
			"target":34962
		},
		{
			"buffer":0,
			"byteLength":548,
			"byteOffset":2418780,
			"target":34962
		},
		{
			"buffer":0,
			"byteLength":1096,
			"byteOffset":2419328,
			"target":34962
		},
		{
			"buffer":0,
			"byteLength":558,
			"byteOffset":2420424,
			"target":34963
		},
		{
			"buffer":0,
			"byteLength":364800,
			"byteOffset":2420984,
			"target":34962
		},
		{
			"buffer":0,
			"byteLength":364800,
			"byteOffset":2785784,
			"target":34962
		},
		{
			"buffer":0,
			"byteLength":243200,
			"byteOffset":3150584,
			"target":34962
		},
		{
			"buffer":0,
			"byteLength":243200,
			"byteOffset":3393784,
			"target":34962
		},
		{
			"buffer":0,
			"byteLength":243200,
			"byteOffset":3636984,
			"target":34962
		},
		{
			"buffer":0,
			"byteLength":121600,
			"byteOffset":3880184,
			"target":34962
		},
		{
			"buffer":0,
			"byteLength":243200,
			"byteOffset":4001784,
			"target":34962
		},
		{
			"buffer":0,
			"byteLength":89418,
			"byteOffset":4244984,
			"target":34963
		},
		{
			"buffer":0,
			"byteLength":7392,
			"byteOffset":4334404,
			"target":34962
		},
		{
			"buffer":0,
			"byteLength":7392,
			"byteOffset":4341796,
			"target":34962
		},
		{
			"buffer":0,
			"byteLength":4928,
			"byteOffset":4349188,
			"target":34962
		},
		{
			"buffer":0,
			"byteLength":4928,
			"byteOffset":4354116,
			"target":34962
		},
		{
			"buffer":0,
			"byteLength":4928,
			"byteOffset":4359044,
			"target":34962
		},
		{
			"buffer":0,
			"byteLength":2464,
			"byteOffset":4363972,
			"target":34962
		},
		{
			"buffer":0,
			"byteLength":4928,
			"byteOffset":4366436,
			"target":34962
		},
		{
			"buffer":0,
			"byteLength":2448,
			"byteOffset":4371364,
			"target":34963
		},
		{
			"buffer":0,
			"byteLength":1200,
			"byteOffset":4373812,
			"target":34962
		},
		{
			"buffer":0,
			"byteLength":1200,
			"byteOffset":4375012,
			"target":34962
		},
		{
			"buffer":0,
			"byteLength":800,
			"byteOffset":4376212,
			"target":34962
		},
		{
			"buffer":0,
			"byteLength":800,
			"byteOffset":4377012,
			"target":34962
		},
		{
			"buffer":0,
			"byteLength":800,
			"byteOffset":4377812,
			"target":34962
		},
		{
			"buffer":0,
			"byteLength":400,
			"byteOffset":4378612,
			"target":34962
		},
		{
			"buffer":0,
			"byteLength":800,
			"byteOffset":4379012,
			"target":34962
		},
		{
			"buffer":0,
			"byteLength":300,
			"byteOffset":4379812,
			"target":34963
		},
		{
			"buffer":0,
			"byteLength":2016,
			"byteOffset":4380112,
			"target":34962
		},
		{
			"buffer":0,
			"byteLength":2016,
			"byteOffset":4382128,
			"target":34962
		},
		{
			"buffer":0,
			"byteLength":1344,
			"byteOffset":4384144,
			"target":34962
		},
		{
			"buffer":0,
			"byteLength":1344,
			"byteOffset":4385488,
			"target":34962
		},
		{
			"buffer":0,
			"byteLength":1344,
			"byteOffset":4386832,
			"target":34962
		},
		{
			"buffer":0,
			"byteLength":672,
			"byteOffset":4388176,
			"target":34962
		},
		{
			"buffer":0,
			"byteLength":1344,
			"byteOffset":4388848,
			"target":34962
		},
		{
			"buffer":0,
			"byteLength":480,
			"byteOffset":4390192,
			"target":34963
		},
		{
			"buffer":0,
			"byteLength":2220,
			"byteOffset":4390672,
			"target":34962
		},
		{
			"buffer":0,
			"byteLength":2220,
			"byteOffset":4392892,
			"target":34962
		},
		{
			"buffer":0,
			"byteLength":1480,
			"byteOffset":4395112,
			"target":34962
		},
		{
			"buffer":0,
			"byteLength":1480,
			"byteOffset":4396592,
			"target":34962
		},
		{
			"buffer":0,
			"byteLength":1480,
			"byteOffset":4398072,
			"target":34962
		},
		{
			"buffer":0,
			"byteLength":740,
			"byteOffset":4399552,
			"target":34962
		},
		{
			"buffer":0,
			"byteLength":1480,
			"byteOffset":4400292,
			"target":34962
		},
		{
			"buffer":0,
			"byteLength":702,
			"byteOffset":4401772,
			"target":34963
		},
		{
			"buffer":0,
			"byteLength":2064,
			"byteOffset":4402476,
			"target":34962
		},
		{
			"buffer":0,
			"byteLength":2064,
			"byteOffset":4404540,
			"target":34962
		},
		{
			"buffer":0,
			"byteLength":1376,
			"byteOffset":4406604,
			"target":34962
		},
		{
			"buffer":0,
			"byteLength":1376,
			"byteOffset":4407980,
			"target":34962
		},
		{
			"buffer":0,
			"byteLength":1376,
			"byteOffset":4409356,
			"target":34962
		},
		{
			"buffer":0,
			"byteLength":688,
			"byteOffset":4410732,
			"target":34962
		},
		{
			"buffer":0,
			"byteLength":1376,
			"byteOffset":4411420,
			"target":34962
		},
		{
			"buffer":0,
			"byteLength":516,
			"byteOffset":4412796,
			"target":34963
		}
	],
	"samplers":[
		{
			"magFilter":9729,
			"minFilter":9987
		}
	],
	"buffers":[
		{
			"byteLength":4413312,
			"uri":"IVO_Remesh_3.bin"
		}
	]
}
